<?xml version="1.0" encoding="UTF-8" standalone="no"?>
<!-- Created by Ki Beom Kim (https://github.com/kikim1025) -->
<!-- Created with Inkscape (http://www.inkscape.org/) -->

<svg
   xmlns:dc="http://purl.org/dc/elements/1.1/"
   xmlns:cc="http://creativecommons.org/ns#"
   xmlns:rdf="http://www.w3.org/1999/02/22-rdf-syntax-ns#"
   xmlns:svg="http://www.w3.org/2000/svg"
   xmlns="http://www.w3.org/2000/svg"
   xmlns:xlink="http://www.w3.org/1999/xlink"
   xmlns:sodipodi="http://sodipodi.sourceforge.net/DTD/sodipodi-0.dtd"
   xmlns:inkscape="http://www.inkscape.org/namespaces/inkscape"
   preserveAspectRatio="none"
   viewBox="0 0 1324.2353 1324.2353"
   version="1.1"
   id="svg8"
   inkscape:version="0.92.4 (5da689c313, 2019-01-14)"
   sodipodi:docname="circle-background.svg">
  <defs
     id="defs2">
    <linearGradient
       inkscape:collect="always"
       id="linearGradient935">
      <stop
         style="stop-color:#000000;stop-opacity:1;"
         offset="0"
         id="stop931" />
      <stop
         style="stop-color:#000000;stop-opacity:0;"
         offset="1"
         id="stop933" />
    </linearGradient>
    <marker
       inkscape:stockid="Arrow1Lstart"
       orient="auto"
       refY="0"
       refX="0"
       id="marker1282"
       style="overflow:visible"
       inkscape:isstock="true">
      <path
         id="path1280"
         d="M 0,0 5,-5 -12.5,0 5,5 Z"
         style="fill:#f99d12;fill-opacity:1;fill-rule:evenodd;stroke:#f99d12;stroke-width:1.00000003pt;stroke-opacity:1"
         transform="matrix(0.8,0,0,0.8,10,0)"
         inkscape:connector-curvature="0" />
    </marker>
    <marker
       inkscape:stockid="Arrow2Lstart"
       orient="auto"
       refY="0"
       refX="0"
       id="Arrow2Lstart"
       style="overflow:visible"
       inkscape:isstock="true">
      <path
         id="path990"
         style="fill:#f99d12;fill-opacity:1;fill-rule:evenodd;stroke:#f99d12;stroke-width:0.625;stroke-linejoin:round;stroke-opacity:1"
         d="M 8.7185878,4.0337352 -2.2072895,0.01601326 8.7185884,-4.0017078 c -1.7454984,2.3720609 -1.7354408,5.6174519 -6e-7,8.035443 z"
         transform="matrix(1.1,0,0,1.1,1.1,0)"
         inkscape:connector-curvature="0" />
    </marker>
    <marker
       inkscape:stockid="Arrow1Lstart"
       orient="auto"
       refY="0"
       refX="0"
       id="Arrow1Lstart"
       style="overflow:visible"
       inkscape:isstock="true">
      <path
         id="path972"
         d="M 0,0 5,-5 -12.5,0 5,5 Z"
         style="fill:#f99d12;fill-opacity:1;fill-rule:evenodd;stroke:#f99d12;stroke-width:1.00000003pt;stroke-opacity:1"
         transform="matrix(0.8,0,0,0.8,10,0)"
         inkscape:connector-curvature="0" />
    </marker>
    <inkscape:path-effect
       effect="bspline"
       id="path-effect4555"
       is_visible="true"
       weight="33.333333"
       steps="2"
       helper_size="0"
       apply_no_weight="true"
       apply_with_weight="true"
       only_selected="false" />
    <linearGradient
       inkscape:collect="always"
       id="linearGradient978">
      <stop
         style="stop-color:#000000;stop-opacity:1;"
         offset="0"
         id="stop974" />
      <stop
         style="stop-color:#000000;stop-opacity:0;"
         offset="1"
         id="stop976" />
    </linearGradient>
    <linearGradient
       inkscape:collect="always"
       xlink:href="#linearGradient978"
       id="linearGradient888"
       x1="1210.3878"
       y1="507.41913"
       x2="2628.2078"
       y2="507.41913"
       gradientUnits="userSpaceOnUse" />
    <radialGradient
       inkscape:collect="always"
       xlink:href="#linearGradient935"
       id="radialGradient941"
       cx="964.86133"
       cy="-146.33945"
       fx="964.86133"
       fy="-146.33945"
       r="33.987503"
       gradientTransform="matrix(1,0,0,1.0167296,0,2.4481955)"
       gradientUnits="userSpaceOnUse" />
    <path
       style="opacity:1;fill:none;fill-opacity:0.2;stroke:#000000;stroke-width:1;stroke-linecap:butt;stroke-linejoin:round;stroke-miterlimit:4;stroke-dasharray:none;stroke-dashoffset:0;stroke-opacity:1;paint-order:normal"
       id="path898-5-6-4"
       sodipodi:type="arc"
       sodipodi:cx="397.40103"
       sodipodi:cy="-102.89761"
       sodipodi:rx="231.51042"
       sodipodi:ry="231.51042"
       sodipodi:start="5.3557918"
       sodipodi:end="6.0908113"
       d="m 536.28908,-288.1196 a 231.51042,231.51042 0 0 1 88.35173,140.95959"
       sodipodi:open="true" />
    <path
       style="opacity:1;fill:none;fill-opacity:1;stroke:#000000;stroke-width:1;stroke-linejoin:round;stroke-miterlimit:4;stroke-dasharray:none;stroke-dashoffset:0;stroke-opacity:1"
       id="path4695-0-00"
       sodipodi:type="arc"
       sodipodi:cx="397.40103"
       sodipodi:cy="-102.89761"
       sodipodi:rx="198.4375"
       sodipodi:ry="198.4375"
       sodipodi:start="3.7782159"
       sodipodi:end="4.8757423"
       d="m 237.8359,-220.86545 a 198.4375,198.4375 0 0 1 191.83658,-77.82796"
       sodipodi:open="true" />
    <path
       style="opacity:1;fill:none;fill-opacity:0.2;stroke:#000000;stroke-width:1;stroke-linecap:butt;stroke-linejoin:round;stroke-miterlimit:4;stroke-dasharray:none;stroke-dashoffset:0;stroke-opacity:1;paint-order:normal"
       id="path898-9"
       sodipodi:type="arc"
       sodipodi:cx="397.40103"
       sodipodi:cy="-102.89761"
       sodipodi:rx="231.51042"
       sodipodi:ry="231.51042"
       sodipodi:start="2.9803817"
       sodipodi:end="3.4257059"
       d="m 168.89246,-65.737048 a 231.51042,231.51042 0 0 1 6.27927,-102.054412"
       sodipodi:open="true" />
    <path
       style="opacity:1;fill:none;fill-opacity:0.2;stroke:#000000;stroke-width:1;stroke-linecap:butt;stroke-linejoin:round;stroke-miterlimit:4;stroke-dasharray:none;stroke-dashoffset:0;stroke-opacity:1;paint-order:normal"
       id="path898-5-5-2"
       sodipodi:type="arc"
       sodipodi:cx="397.40103"
       sodipodi:cy="-102.89761"
       sodipodi:rx="231.51042"
       sodipodi:ry="231.51042"
       sodipodi:start="4.1591238"
       sodipodi:end="4.4649181"
       d="m 275.74969,-299.86976 a 231.51042,231.51042 0 0 1 64.94224,-27.48532"
       sodipodi:open="true" />
    <path
       style="opacity:1;fill:none;fill-opacity:0.2;stroke:#000000;stroke-width:1;stroke-linecap:butt;stroke-linejoin:round;stroke-miterlimit:4;stroke-dasharray:none;stroke-dashoffset:0;stroke-opacity:1;paint-order:normal"
       id="path898-5-73-8"
       sodipodi:type="arc"
       sodipodi:cx="397.40103"
       sodipodi:cy="-102.89761"
       sodipodi:rx="231.51042"
       sodipodi:ry="231.51042"
       sodipodi:start="0.8935052"
       sodipodi:end="1.5422684"
       d="M 542.485,77.51225 A 231.51042,231.51042 0 0 1 404.00465,128.51861"
       sodipodi:open="true" />
    <path
       style="opacity:1;fill:none;fill-opacity:1;stroke:#000000;stroke-width:1;stroke-linejoin:round;stroke-miterlimit:4;stroke-dasharray:none;stroke-dashoffset:0;stroke-opacity:1"
       id="path4695-0-09-6-7"
       sodipodi:type="arc"
       sodipodi:cx="397.40091"
       sodipodi:cy="-102.8976"
       sodipodi:rx="198.4375"
       sodipodi:ry="198.4375"
       sodipodi:start="1.5748498"
       sodipodi:end="2.012355"
       d="M 396.59655,95.538272 A 198.4375,198.4375 0 0 1 312.59881,76.507099"
       sodipodi:open="true" />
    <path
       style="opacity:1;fill:none;fill-opacity:1;stroke:#000000;stroke-width:1;stroke-linejoin:round;stroke-miterlimit:4;stroke-dasharray:none;stroke-dashoffset:0;stroke-opacity:1"
       id="path4695-0-09-69-4"
       sodipodi:type="arc"
       sodipodi:cx="397.40091"
       sodipodi:cy="-102.8976"
       sodipodi:rx="198.4375"
       sodipodi:ry="198.4375"
       sodipodi:start="5.9898874"
       sodipodi:end="0.22177829"
       sodipodi:open="true"
       d="m 587.36426,-160.26804 a 198.4375,198.4375 0 0 1 3.61398,101.019688" />
    <path
       style="opacity:1;fill:none;fill-opacity:0.2;stroke:#000000;stroke-width:1;stroke-linecap:butt;stroke-linejoin:round;stroke-miterlimit:4;stroke-dasharray:none;stroke-dashoffset:0;stroke-opacity:1;paint-order:normal"
       id="path898-0-1-4-2"
       sodipodi:type="arc"
       sodipodi:cx="397.40091"
       sodipodi:cy="-102.8976"
       sodipodi:rx="165.36458"
       sodipodi:ry="165.36458"
       sodipodi:start="4.6496878"
       sodipodi:end="5.3676363"
       sodipodi:open="true"
       d="m 387.03915,-267.93722 a 165.36458,165.36458 0 0 1 111.12755,33.9225" />
    <path
       style="opacity:1;fill:none;fill-opacity:0.2;stroke:#000000;stroke-width:1;stroke-linecap:butt;stroke-linejoin:round;stroke-miterlimit:4;stroke-dasharray:none;stroke-dashoffset:0;stroke-opacity:1;paint-order:normal"
       id="path898-0-1-0-9"
       sodipodi:type="arc"
       sodipodi:cx="397.40091"
       sodipodi:cy="-102.8976"
       sodipodi:rx="165.36458"
       sodipodi:ry="165.36458"
       sodipodi:start="1.6957831"
       sodipodi:end="2.4881511"
       d="M 376.78629,61.177023 A 165.36458,165.36458 0 0 1 266.10205,-2.368737"
       sodipodi:open="true" />
    <path
       style="opacity:1;fill:none;fill-opacity:0.2;stroke:#000000;stroke-width:1;stroke-linecap:butt;stroke-linejoin:round;stroke-miterlimit:4;stroke-dasharray:none;stroke-dashoffset:0;stroke-opacity:1;paint-order:normal"
       id="path898-0-1-3-8"
       sodipodi:type="arc"
       sodipodi:cx="397.40091"
       sodipodi:cy="-102.8976"
       sodipodi:rx="165.36458"
       sodipodi:ry="165.36458"
       sodipodi:start="0.047432098"
       sodipodi:end="0.67066839"
       sodipodi:open="true"
       d="M 562.5795,-95.05695 A 165.36458,165.36458 0 0 1 526.94858,-0.1219011" />
    <path
       style="opacity:1;fill:none;fill-opacity:0.2;stroke:#000000;stroke-width:1;stroke-linecap:butt;stroke-linejoin:round;stroke-miterlimit:4;stroke-dasharray:none;stroke-dashoffset:0;stroke-opacity:1;paint-order:normal"
       id="path898-0-2"
       sodipodi:type="arc"
       sodipodi:cx="397.40103"
       sodipodi:cy="-102.89761"
       sodipodi:rx="165.36458"
       sodipodi:ry="165.36458"
       sodipodi:start="3.3355765"
       sodipodi:end="3.9269143"
       d="m 235.13802,-134.77487 a 165.36458,165.36458 0 0 1 45.32365,-85.04421"
       sodipodi:open="true" />
  </defs>
  <sodipodi:namedview
     id="base"
     pagecolor="#ffffff"
     bordercolor="#666666"
     borderopacity="1.0"
     inkscape:pageopacity="0.0"
     inkscape:pageshadow="2"
     inkscape:zoom="0.14068745"
     inkscape:cx="-864.7822"
     inkscape:cy="2151.712"
     inkscape:document-units="px"
     inkscape:current-layer="layer1"
     showgrid="false"
     showguides="false"
     inkscape:window-width="1920"
     inkscape:window-height="1001"
     inkscape:window-x="-9"
     inkscape:window-y="-9"
     inkscape:window-maximized="1"
     inkscape:guide-bbox="true"
     width="700mm"
     units="px" />
  <metadata
     id="metadata5">
    <rdf:RDF>
      <cc:Work
         rdf:about="">
        <dc:format>image/svg+xml</dc:format>
        <dc:type
           rdf:resource="http://purl.org/dc/dcmitype/StillImage" />
        <dc:title />
      </cc:Work>
    </rdf:RDF>
  </metadata>
  <g
     inkscape:label="Layer 1"
     inkscape:groupmode="layer"
     id="layer1"
     transform="translate(0,1027.1311)"
     style="opacity:0.98999999">
    <path
       style="opacity:1;fill:#f4c1f4;fill-opacity:0.19730942;stroke:none;stroke-width:1.05854142;stroke-linecap:butt;stroke-linejoin:round;stroke-miterlimit:4;stroke-dasharray:none;stroke-dashoffset:0;stroke-opacity:0;paint-order:normal"
       id="path1435-4"
       d="m 880.16791,-239.32452 c 0.55866,1.18509 0.95955,2.34161 1.6717,3.55716 1.58606,2.72837 3.39177,4.40211 4.82809,7.11701 0.72503,1.36998 0.97215,2.62569 1.61556,3.97869 0.5581,1.17431 3.29443,5.86293 4.02318,7.12537 0.32873,2.91947 3.09083,6.52649 4.12025,9.62007 0.388,1.18051 0.30381,2.2082 0.65716,3.37846 0.49595,1.62981 1.95633,4.43662 2.81622,6.17072 2.20373,9.24274 -0.77657,-2.48688 1.92024,6.03111 0.36567,1.12283 0.29007,2.12249 0.7972,3.28494 0.42207,0.99157 1.39479,2.09608 1.94858,3.11838 1.26595,2.32706 2.194,4.58377 3.3832,6.89573 2.68363,2.12815 3.21424,4.30212 5.47953,6.41841 44.70677,41.75713 90.60648,83.341504 134.86628,125.160894 41.9191,39.6082396 -85.17879,-79.024824 -127.84362,-118.525784 -1.17145,-1.08375 2.18597,2.18852 3.35856,3.27281 45.07071,41.69811 90.24366,83.380044 135.36616,125.070344 4.908,3.79245 11.2721,6.45614 16.4541,9.9513 1.5626,1.05411 2.7355,2.28718 4.211,3.38953 3.0147,2.25213 6.4657,4.4102 9.7035,6.50653 5.5929,3.40624 11.3087,6.64778 17.0551,9.8529496 2.0124,1.12256 4.1884,2.08772 6.0399,3.3631 1.5883,1.09291 2.5974,2.39308 4.0143,3.55985 1.4334,1.18051001 3.0118,2.31062 4.5182,3.46552 -3.4905,-2.35696999 9.1872,9.0438304 6.7647,6.7971 C 1085.5548,-30.068006 961.49845,-148.32319 1000.7265,-108.66538 c 41.6334,42.090814 88.8268,83.606994 134.4493,125.219124 41.579,37.92317 -158.52215,-152.543584 -122.8685,-114.06923 1.4162,1.32874 2.9161,2.64779 4.2499,3.98543 1.4409,1.44518 2.6307,2.90383 4.0596,4.35063 2.8185,2.85181 6.285,5.63437 9.086,8.48807 1.4166,1.44464 2.5185,2.89764 3.7807,4.34309 0,0 148.5914,118.50072 148.5914,118.50072 v 0 c -13.135,-13.56076 5.0331,5.59772 -7.2873,-8.83872 -4.0732,-4.77244 -4.3894,-3.67979 -8.9655,-8.242 -1.3269,-1.32174 -2.2693,-2.65453 -3.4032,-3.98246 -48.1392,-42.58646 -95.2831,-84.22447 -137.5622,-128.839074 -37.53721,-39.61039 170.4231,156.387244 126.2303,117.5735636 -47.1235,-41.3876196 -89.8685,-83.5614396 -135.0349,-125.3067136 -1.1858,-1.09614 -2.5565,-2.1675 -3.9871,-3.18521 -1.5958,-1.13362 -3.3585,-2.15592 -5.0374,-3.23401 -9.58345,-6.33432 -0.7116,-0.70776 -11.1976,-6.64669 -7.42497,-4.20428 -14.46853,-8.96648 -21.25323,-13.70199 -1.20466,-0.85304 -8.11937,-5.75997 -9.33806,-6.54994 -1.66368,-1.07944 -3.48226,-2.01764 -5.13535,-3.10517 -4.88937,-3.21756 -9.09295,-6.78819 -12.87387,-10.37042 42.47126,39.45649 84.96141,78.910024 127.41201,118.369734 1.1598,1.08133 -2.3766,-2.15079 -3.5409,-3.22753 -44.9095,-41.69029 -87.04947,-83.901574 -134.67526,-125.078684 -45.18668,-39.06757 84.99746,79.141794 127.33906,118.735734 2.2111,2.06779 -10.0104,-8.35789 -6.4156,-6.23082 -3.5671,-2.57313 -4.7227,-3.02377 -6.6284,-5.88394 -0.7287,-1.09561 -0.6666,-2.04515 -1.4627,-3.1456 -0.6666,-0.93175 -2.2068,-1.8934 -2.803,-2.8157 -1.3727,-2.12707 -0.2892,-3.70783 -2.6897,-6.09175 -0.3061,-2.82217 0.037,-3.23536 -1.7298,-6.42731 -0.5549,-1.00963 -1.7619,-2.14109 -2.102,-3.09628 -0.4402,-1.22713 0.069,-2.13192 -0.1833,-3.29841 -0.5398,-2.59038 -1.5867,-4.03314 -3.1945,-6.86824 -0.7462,-3.430764 -0.4327,-3.751764 -2.702,-7.534504 -0.7173,-1.19238 -2.0482,-2.48743 -2.5688,-3.64018 -1.4495,-3.19357 -0.1661,-5.59341 -4.3693,-9.37292 0,0 -146.72878,-121.44956 -146.72878,-121.44956 z"
       inkscape:connector-curvature="0" />
    <path
       style="opacity:1;fill:#f4c1f4;fill-opacity:0.19730942;stroke:none;stroke-width:1.05854142;stroke-linecap:butt;stroke-linejoin:round;stroke-miterlimit:4;stroke-dasharray:none;stroke-dashoffset:0;stroke-opacity:0;paint-order:normal"
       id="path1604-6"
       d="m 685.20252,-602.16773 c -2.98596,-4.54975 -6.60405,-9.71076 -9.1271,-15.01402 -1.19639,-2.51576 -2.01561,-5.47608 -3.13431,-8.08862 -1.27196,-2.96989 -2.88272,-5.53777 -4.03122,-8.64325 -0.9992,-2.70029 -1.52722,-5.81429 -2.36977,-8.65868 -0.91658,-3.09325 -1.9376,-6.09797 -2.90641,-9.14709 -3.43655,-12.17654 -1.34476,-6.21098 -6.40099,-17.77466 0,0 0.93102,-356.37485 0.93102,-356.37485 v 0 c 2.92143,12.6405 0.81428,6.6516 6.62154,17.6649 0.97248,2.9202 1.89767,5.885 2.91777,8.75993 1.02131,2.8803 2.43428,5.41041 3.20434,8.49968 0.66746,2.67902 0.33266,5.87543 1.03852,8.52707 0.75316,2.82817 2.3541,4.83291 3.24242,7.55047 0.68313,2.09063 0.95007,4.48914 1.42556,6.73344 0.45031,1.32754 0.90091,2.65508 1.35122,3.98236 0,0 7.23741,361.98332 7.23741,361.98332 z"
       inkscape:connector-curvature="0" />
    <path
       style="opacity:1;fill:#f4c1f4;fill-opacity:0.19730942;stroke:none;stroke-width:1.05854142;stroke-linecap:butt;stroke-linejoin:round;stroke-miterlimit:4;stroke-dasharray:none;stroke-dashoffset:0;stroke-opacity:0;paint-order:normal"
       id="path1606-5"
       d="m 128.03549,24.074844 c 72.79218,-60.5648 -38.771593,32.31175 199.06374,-171.548954 2.01293,-1.72565 8.83461,-6.52762 6.83089,-4.7994 C 273.42316,-100.08732 93.725337,56.886394 151.46827,4.0042836 289.41922,-122.33495 274.89576,-111.52577 351.66676,-167.26697 c 5.11262,-2.82976 9.62912,-6.34849 14.60302,-9.32701 3.18941,-1.90941 6.53574,-3.55219 9.73946,-5.44126 13.73939,-8.09988 26.78468,-16.8424 39.77297,-25.70589 20.85088,-14.09629 39.93207,-29.28252 59.39499,-44.19441 0,0 -162.14064,162.911954 -162.14064,162.911954 v 0 c -19.68993,14.57576 -39.51057,29.10056 -60.25328,42.95827 -30.63933,20.41956 -2.2038,1.49556 -31.69406,21.04702 -12.43631,8.24477 -25.15105,16.6635296 -35.74346,25.98383961 C 127.98287,51.932074 422.86702,-200.54539 361.82045,-150.72981 294.80905,-96.047156 232.38447,-39.805366 167.77572,15.690064 c -2.01512,1.73054 -7.82983,6.98419 -5.81932,5.2521 182.77883,-157.470944 231.68957,-211.717104 179.4131,-154.064944 0,0 -213.33401,157.197624 -213.33401,157.197624 z"
       inkscape:connector-curvature="0" />
    <path
       style="opacity:1;fill:#f4c1f4;fill-opacity:0.19730942;stroke:none;stroke-width:1.05854142;stroke-linecap:butt;stroke-linejoin:round;stroke-miterlimit:4;stroke-dasharray:none;stroke-dashoffset:0;stroke-opacity:0;paint-order:normal"
       id="path1608-0"
       d="m 335.49705,-566.70594 c 15.69606,8.13626 31.5434,15.92894 47.52818,23.37959 10.91591,5.95236 25.3906,9.71043 34.88961,17.37138 16.99283,13.70499 -6.9841,-2.90608 11.84188,9.68308 2.4719,0.80769 5.03501,1.98861 7.4157,2.42461 10.7001,1.95858 18.36843,-4.86541 21.42814,-8.09619 2.59228,-2.73698 -8.47614,-13.7847 -11.7556,-17.1006 -2.11372,-2.05447 -4.08309,-4.15055 -6.34166,-6.16343 -2.50181,-2.22934 -5.29678,-4.34622 -7.90735,-6.53511 -231.40754,-194.03781 -140.98375,-134.45457 -237.31291,-197.40956 0,0 194.78537,195.98868 194.78537,195.98868 v 0 c 78.09247,66.93802 -10.75894,-9.2644 -205.47534,-172.53976 -2.39032,-2.0044 4.40666,4.1517 6.8568,6.12953 2.1864,1.7656 4.66373,3.37021 6.99547,5.0557 2.58808,2.14961 6.90031,6.06751 10.43092,7.89282 8.81257,4.55575 13.88911,-2.2929 20.01794,-4.22027 1.03152,-0.32353 2.86097,0 3.40528,-0.67365 0.33124,-0.41329 -0.85725,-1.31419 -1.28563,-1.97128 -1.94786,-1.25988 -3.77509,-2.66727 -5.84407,-3.77925 -7.27949,-3.91137 -10.35107,-4.57616 -17.61648,-7.77998 -8.96632,-3.95411 -17.7418,-8.55993 -26.56648,-12.88457 -15.96673,-8.44284 -32.05558,-17.2227 -45.34525,-28.26002 0,0 199.85548,199.48828 199.85548,199.48828 z"
       inkscape:connector-curvature="0" />
    <path
       style="opacity:1;fill:#f4c1f4;fill-opacity:0.19730942;stroke:none;stroke-width:1.05854142;stroke-linecap:butt;stroke-linejoin:round;stroke-miterlimit:4;stroke-dasharray:none;stroke-dashoffset:0;stroke-opacity:0.2627451;paint-order:normal"
       d="m 807.49147,-486.70205 141.53767,-67.09533 c 1.75362,-1.76716 4.71617,-3.13557 6.71788,-4.81336 1.53348,-1.28594 2.47104,-2.70622 3.99661,-3.99403 3.08511,-2.60274 12.13843,-8.83558 15.13919,-11.06377 2.88141,-2.13934 5.61955,-4.32575 8.42942,-6.48849 20.03616,-15.68163 43.96156,-29.94455 67.54906,-44.19286 3.3011,-1.96748 7.0908,-4.21855 11.1517,-6.6255 11.2611,-6.50499 22.5139,-13.01343 33.7658,-19.52321 2.3124,-1.33409 4.6252,-2.66845 6.9378,-4.0036 l 3.1628,-2.36705 c 33.4833,-19.71395 53.4919,-31.42359 0.4676,-0.35008 l 103.3414,-77.36154 c -2.5254,1.49476 -5.05,2.98873 -7.5753,4.48323 -22.785,13.45317 -45.5877,26.89569 -68.3076,40.38105 -53.3566,31.25015 -107.0341,62.36493 -160.1156,93.76461 0.26156,-0.2474 0.52141,-0.49373 0.7866,-0.74167 0.0534,-0.0532 0.11103,-0.1064 0.16654,-0.1596 21.43687,-14.59653 42.69416,-29.16671 64.06766,-43.75047 11.102,-7.52332 22.1542,-15.03944 33.2172,-22.55611 1.2283,-0.83371 2.4563,-1.66715 3.6849,-2.50058 l -65.6099,39.92243 c 0.2635,-0.19685 0.5248,-0.3977 0.7883,-0.59668 22.127,-15.09346 14.7286,-10.04439 0.2603,-0.19686 2.8733,-2.17498 5.7632,-4.35209 8.6438,-6.52495 2.316,-1.73098 4.9783,-3.71443 7.8348,-5.83966 8.015,-5.85085 16.0193,-11.7009 24.0232,-17.55015 1.6466,-1.20108 3.2928,-2.40243 4.939,-3.60351 l 1.9529,-1.77515 c 23.6262,-17.48949 37.783,-27.92304 0.2888,-0.26336 l 63.7927,-58.01497 c -1.7778,1.32106 -3.5553,2.64186 -5.3326,3.96264 -16.0561,11.90999 -32.1362,23.82529 -48.1068,35.71849 -50.4412,37.19626 -101.60732,74.54947 -150.68712,111.47864 -12.61222,9.56423 -25.71127,19.26013 -36.57051,28.44101 -12.10662,7.75396 -23.66641,15.72286 -33.95493,24.16554 -13.47803,9.87572 -27.08289,19.70437 -40.38413,29.6341 z m 268.12233,-178.95784 h 0.021 v 0 c 0,0 -0.021,0 -0.021,0 z"
       id="path2352-8"
       inkscape:connector-curvature="0" />
    <path
       style="opacity:1;fill:#f4c1f4;fill-opacity:0.19730942;stroke:none;stroke-width:1.05854142;stroke-linecap:butt;stroke-linejoin:round;stroke-miterlimit:4;stroke-dasharray:none;stroke-dashoffset:0;stroke-opacity:0.2627451;paint-order:normal"
       d="m 647.02398,-146.26309 c 9.53365,-16.11543 15.32808,-40.6226 29.80227,-50.66552 16.65314,11.73379 3.59444,29.98803 9.18281,44.5456 3.40544,46.02195 6.94159,92.209936 2.66718,137.732256 1.33668,40.28366 -1.30011,80.35987 1.61365,120.709384 -0.8964,21.38907 -13.91259,40.32742 -19.74678,60.52996 -0.9552,12.70194 2.51128,48.06078 2.20786,42.92186 -3.8309,-48.19077 -5.90585,-96.32642 -8.94981,-144.492304 4.15383,69.435244 8.07122,138.874154 9.66387,208.192494 0.46351,6.94714 -1.29047,-21.84707 -1.7629,-30.06182 -2.04627,-34.4956 -4.09404,-68.99098 -6.19738,-103.4883 4.48169,52.83994 0.4393,105.20405 -0.0247,157.74988 -3.18333,-67.48931 -11.0596,-135.247 -8.47322,-202.439414 2.22195,42.218654 4.04439,84.422944 6.65646,126.656404 -2.14485,-56.94205 -9.9596,-114.25244 -7.64747,-170.920114 6.18454,-22.61657 22.56664,-43.6111397 17.58708,-68.06853 -1.02461,-41.65489 -1.33619,-83.281686 -0.18539,-124.781696 0.73679,-16.09162 2.62271,-36.25726 2.16736,-32.71827 2.84309,47.15613 6.03012,94.327296 8.19327,141.459406 -0.26659,-11.40988 -2.8226,-43.25911 -1.81699,-42.36497 -3.5574,18.48034 -16.64822,34.27206 -23.81538,51.75638 -3.70662,-40.75047 -7.41573,-81.502436 -11.12186,-122.252476 z"
       id="path2334-9"
       inkscape:connector-curvature="0" />
    <path
       style="opacity:1;fill:none;fill-opacity:1;stroke:#f99d12;stroke-width:3.4982326;stroke-linejoin:round;stroke-miterlimit:4;stroke-dasharray:83.95758018, 3.49823251;stroke-dashoffset:0;stroke-opacity:1"
       id="path4579-5"
       r="200"
       cy="822.00891"
       cx="-381.75595"
       d=""
       inkscape:connector-curvature="0" />
    <path
       inkscape:connector-curvature="0"
       d=""
       style="opacity:1;fill:none;fill-opacity:1;stroke:#f99d12;stroke-width:3.4982326;stroke-linejoin:round;stroke-miterlimit:4;stroke-dasharray:83.95758291, 3.49823263;stroke-dashoffset:0;stroke-opacity:1"
       id="path4579-2-1"
       r="130"
       cy="-35.694225"
       cx="354.46613" />
    <path
       inkscape:connector-curvature="0"
       d=""
       style="opacity:1;fill:none;fill-opacity:1;stroke:#f99912;stroke-width:3.4982326;stroke-linejoin:round;stroke-miterlimit:4;stroke-dasharray:83.95758382, 3.49823267;stroke-dashoffset:0;stroke-opacity:1"
       id="path4579-2-8-4"
       r="165"
       cy="-34.862988"
       cx="355.14648" />
    <path
       inkscape:connector-curvature="0"
       d=""
       style="opacity:1;fill:none;fill-opacity:1;stroke:#f99912;stroke-width:3.4982326;stroke-linejoin:round;stroke-miterlimit:4;stroke-dasharray:83.957582, 3.49823259;stroke-dashoffset:0;stroke-opacity:1"
       id="path4695-5"
       r="95"
       cy="-35.543407"
       cx="355.37323" />
    <path
       style="opacity:1;fill:none;fill-opacity:1;stroke:#f99d12;stroke-width:1;stroke-linejoin:round;stroke-miterlimit:4;stroke-dasharray:none;stroke-dashoffset:0;stroke-opacity:1"
       id="path4579-2-4"
       r="150"
       cy="-57.382874"
       cx="1050.9176"
       d=""
       inkscape:connector-curvature="0" />
    <path
       style="opacity:1;fill:none;fill-opacity:1;stroke:#f99912;stroke-width:1;stroke-linejoin:round;stroke-miterlimit:4;stroke-dasharray:none;stroke-dashoffset:0;stroke-opacity:1"
       id="path4579-2-8-1"
       r="175"
       cy="-56.551632"
       cx="1051.598"
       d=""
       inkscape:connector-curvature="0" />
    <path
       style="opacity:1;fill:none;fill-opacity:1;stroke:#f99d12;stroke-width:1;stroke-linejoin:round;stroke-miterlimit:4;stroke-dasharray:none;stroke-dashoffset:0;stroke-opacity:1"
       id="path4579-2-4-3"
       r="140"
       cy="-62.152576"
       cx="1500.4899"
       d=""
       inkscape:connector-curvature="0" />
    <path
       style="opacity:1;fill:none;fill-opacity:1;stroke:#f99912;stroke-width:1;stroke-linejoin:round;stroke-miterlimit:4;stroke-dasharray:none;stroke-dashoffset:0;stroke-opacity:1"
       id="path4579-2-8-1-3"
       r="170"
       cy="-61.321339"
       cx="1501.1703"
       d=""
       inkscape:connector-curvature="0" />
    <path
       style="opacity:1;fill:none;fill-opacity:1;stroke:#000000;stroke-width:1;stroke-linejoin:round;stroke-miterlimit:4;stroke-dasharray:none;stroke-dashoffset:0;stroke-opacity:1"
       id="path4695-0-9"
       r="125"
       cy="-53.5"
       cx="1050.5"
       d=""
       inkscape:connector-curvature="0" />
    <path
       style="opacity:1;fill:none;fill-opacity:1;stroke:#000000;stroke-width:1;stroke-linejoin:round;stroke-miterlimit:4;stroke-dasharray:none;stroke-dashoffset:0;stroke-opacity:1"
       id="path4695-0-0"
       r="125"
       cy="-53.5"
       cx="1050.5"
       d=""
       inkscape:connector-curvature="0" />
  </g>
</svg>
